<svg width="17" height="17" viewBox="0 0 17 17" fill="none" xmlns="http://www.w3.org/2000/svg">
<g clip-path="url(#clip0_1_312)">
<path d="M8.32501 5.36664V14.7" stroke="#D1D5DB" stroke-width="2" stroke-linecap="round" stroke-linejoin="round"/>
<path d="M2.32501 12.7C2.1482 12.7 1.97863 12.6297 1.85361 12.5047C1.72858 12.3797 1.65834 12.2101 1.65834 12.0333V3.36665C1.65834 3.18984 1.72858 3.02027 1.85361 2.89524C1.97863 2.77022 2.1482 2.69998 2.32501 2.69998H5.65834C6.36559 2.69998 7.04387 2.98093 7.54396 3.48103C8.04406 3.98113 8.32501 4.6594 8.32501 5.36665C8.32501 4.6594 8.60596 3.98113 9.10606 3.48103C9.60616 2.98093 10.2844 2.69998 10.9917 2.69998H14.325C14.5018 2.69998 14.6714 2.77022 14.7964 2.89524C14.9214 3.02027 14.9917 3.18984 14.9917 3.36665V12.0333C14.9917 12.2101 14.9214 12.3797 14.7964 12.5047C14.6714 12.6297 14.5018 12.7 14.325 12.7H10.325C9.79458 12.7 9.28587 12.9107 8.9108 13.2858C8.53572 13.6608 8.32501 14.1695 8.32501 14.7C8.32501 14.1695 8.1143 13.6608 7.73922 13.2858C7.36415 12.9107 6.85544 12.7 6.32501 12.7H2.32501Z" stroke="#D1D5DB" stroke-width="2" stroke-linecap="round" stroke-linejoin="round"/>
</g>
<defs>
<clipPath id="clip0_1_312">
<rect width="16" height="16" fill="white" transform="translate(0.325012 0.699982)"/>
</clipPath>
</defs>
</svg>
