<svg width="17" height="17" viewBox="0 0 17 17" fill="none" xmlns="http://www.w3.org/2000/svg">
<g clip-path="url(#clip0_1_651)">
<path d="M8.8623 2.29999H4.19564C3.84202 2.29999 3.50288 2.44046 3.25283 2.69051C3.00278 2.94056 2.8623 3.2797 2.8623 3.63332V12.9667C2.8623 13.3203 3.00278 13.6594 3.25283 13.9095C3.50288 14.1595 3.84202 14.3 4.19564 14.3H13.529C13.8826 14.3 14.2217 14.1595 14.4718 13.9095C14.7218 13.6594 14.8623 13.3203 14.8623 12.9667V8.29999" stroke="white" stroke-width="2" stroke-linecap="round" stroke-linejoin="round"/>
<path d="M13.1122 2.04999C13.3774 1.78477 13.7371 1.63577 14.1122 1.63577C14.4873 1.63577 14.847 1.78477 15.1122 2.04999C15.3774 2.3152 15.5264 2.67491 15.5264 3.04999C15.5264 3.42506 15.3774 3.78477 15.1122 4.04999L9.10354 10.0593C8.94524 10.2175 8.74967 10.3333 8.53487 10.396L6.61954 10.956C6.56217 10.9727 6.50136 10.9737 6.44348 10.9589C6.38559 10.9441 6.33276 10.9139 6.2905 10.8717C6.24825 10.8294 6.21813 10.7766 6.2033 10.7187C6.18847 10.6608 6.18947 10.6 6.2062 10.5427L6.7662 8.62732C6.82922 8.41269 6.94523 8.21736 7.10354 8.05932L13.1122 2.04999Z" stroke="white" stroke-width="2" stroke-linecap="round" stroke-linejoin="round"/>
</g>
<defs>
<clipPath id="clip0_1_651">
<rect width="16" height="16" fill="white" transform="translate(0.862305 0.299988)"/>
</clipPath>
</defs>
</svg>
