<svg width="17" height="17" viewBox="0 0 17 17" fill="none" xmlns="http://www.w3.org/2000/svg">
<path d="M10.5834 2.5C10.9351 2.50501 11.2706 2.64878 11.5167 2.9L14.0501 5.43333C14.3013 5.67951 14.4451 6.01497 14.4501 6.36667V13.1667C14.4501 13.5203 14.3096 13.8594 14.0595 14.1095C13.8095 14.3595 13.4704 14.5 13.1167 14.5H3.78341C3.42978 14.5 3.09065 14.3595 2.8406 14.1095C2.59055 13.8594 2.45007 13.5203 2.45007 13.1667V3.83333C2.45007 3.47971 2.59055 3.14057 2.8406 2.89052C3.09065 2.64048 3.42978 2.5 3.78341 2.5H10.5834Z" stroke="white" stroke-width="2" stroke-linecap="round" stroke-linejoin="round"/>
<path d="M11.7834 14.5V9.83332C11.7834 9.65651 11.7132 9.48694 11.5881 9.36192C11.4631 9.23689 11.2935 9.16666 11.1167 9.16666H5.7834C5.60659 9.16666 5.43702 9.23689 5.31199 9.36192C5.18697 9.48694 5.11673 9.65651 5.11673 9.83332V14.5" stroke="white" stroke-width="2" stroke-linecap="round" stroke-linejoin="round"/>
<path d="M5.11673 2.5V5.16667C5.11673 5.34348 5.18697 5.51305 5.31199 5.63807C5.43702 5.7631 5.60659 5.83333 5.7834 5.83333H10.4501" stroke="white" stroke-width="2" stroke-linecap="round" stroke-linejoin="round"/>
</svg>
