<svg width="17" height="17" viewBox="0 0 17 17" fill="none" xmlns="http://www.w3.org/2000/svg">
<g clip-path="url(#clip0_1_614)">
<path d="M8.3252 5.36664V14.7" stroke="#C084FC" stroke-width="2" stroke-linecap="round" stroke-linejoin="round"/>
<path d="M2.32536 12.7C2.14855 12.7 1.97898 12.6297 1.85395 12.5047C1.72893 12.3797 1.65869 12.2101 1.65869 12.0333V3.36665C1.65869 3.18984 1.72893 3.02027 1.85395 2.89524C1.97898 2.77022 2.14855 2.69998 2.32536 2.69998H5.65869C6.36594 2.69998 7.04421 2.98093 7.54431 3.48103C8.04441 3.98113 8.32536 4.6594 8.32536 5.36665C8.32536 4.6594 8.60631 3.98113 9.10641 3.48103C9.6065 2.98093 10.2848 2.69998 10.992 2.69998H14.3254C14.5022 2.69998 14.6717 2.77022 14.7968 2.89524C14.9218 3.02027 14.992 3.18984 14.992 3.36665V12.0333C14.992 12.2101 14.9218 12.3797 14.7968 12.5047C14.6717 12.6297 14.5022 12.7 14.3254 12.7H10.3254C9.79492 12.7 9.28622 12.9107 8.91114 13.2858C8.53607 13.6608 8.32536 14.1695 8.32536 14.7C8.32536 14.1695 8.11464 13.6608 7.73957 13.2858C7.3645 12.9107 6.85579 12.7 6.32536 12.7H2.32536Z" stroke="#C084FC" stroke-width="2" stroke-linecap="round" stroke-linejoin="round"/>
</g>
<defs>
<clipPath id="clip0_1_614">
<rect width="16" height="16" fill="white" transform="translate(0.325195 0.699982)"/>
</clipPath>
</defs>
</svg>
