<svg width="21" height="21" viewBox="0 0 21 21" fill="none" xmlns="http://www.w3.org/2000/svg">
<g clip-path="url(#clip0_1_673)">
<path d="M18.9671 8.43333C19.3477 10.3011 19.0765 12.2428 18.1987 13.9348C17.3209 15.6268 15.8896 16.9667 14.1434 17.7311C12.3973 18.4955 10.4418 18.6382 8.60323 18.1353C6.76462 17.6325 5.15397 16.5145 4.03987 14.9678C2.92578 13.4212 2.37558 11.5394 2.48103 9.63615C2.58648 7.73294 3.34121 5.92341 4.61935 4.50931C5.8975 3.09521 7.62179 2.16202 9.5047 1.86538C11.3876 1.56873 13.3153 1.92655 14.9663 2.87916" stroke="#4ADE80" stroke-width="2" stroke-linecap="round" stroke-linejoin="round"/>
<path d="M8.2998 9.26665L10.7998 11.7667L19.1331 3.43332" stroke="#4ADE80" stroke-width="2" stroke-linecap="round" stroke-linejoin="round"/>
</g>
<defs>
<clipPath id="clip0_1_673">
<rect width="20" height="20" fill="white" transform="translate(0.799805 0.0999908)"/>
</clipPath>
</defs>
</svg>
