<svg width="20" height="21" viewBox="0 0 20 21" fill="none" xmlns="http://www.w3.org/2000/svg">
<g clip-path="url(#clip0_1_317)">
<path d="M10 14.0333C11.841 14.0333 13.3334 12.5409 13.3334 10.7C13.3334 8.85902 11.841 7.36664 10 7.36664C8.15907 7.36664 6.66669 8.85902 6.66669 10.7C6.66669 12.5409 8.15907 14.0333 10 14.0333Z" stroke="#FCD34D" stroke-width="2" stroke-linecap="round" stroke-linejoin="round"/>
<path d="M10 2.36664V4.0333" stroke="#FCD34D" stroke-width="2" stroke-linecap="round" stroke-linejoin="round"/>
<path d="M10 17.3666V19.0333" stroke="#FCD34D" stroke-width="2" stroke-linecap="round" stroke-linejoin="round"/>
<path d="M4.10834 4.80832L5.28334 5.98332" stroke="#FCD34D" stroke-width="2" stroke-linecap="round" stroke-linejoin="round"/>
<path d="M14.7167 15.4167L15.8917 16.5917" stroke="#FCD34D" stroke-width="2" stroke-linecap="round" stroke-linejoin="round"/>
<path d="M1.66669 10.7H3.33335" stroke="#FCD34D" stroke-width="2" stroke-linecap="round" stroke-linejoin="round"/>
<path d="M16.6667 10.7H18.3334" stroke="#FCD34D" stroke-width="2" stroke-linecap="round" stroke-linejoin="round"/>
<path d="M5.28334 15.4167L4.10834 16.5917" stroke="#FCD34D" stroke-width="2" stroke-linecap="round" stroke-linejoin="round"/>
<path d="M15.8917 4.80832L14.7167 5.98332" stroke="#FCD34D" stroke-width="2" stroke-linecap="round" stroke-linejoin="round"/>
</g>
<defs>
<clipPath id="clip0_1_317">
<rect width="20" height="20" fill="white" transform="translate(0 0.699982)"/>
</clipPath>
</defs>
</svg>
