<svg width="17" height="17" viewBox="0 0 17 17" fill="none" xmlns="http://www.w3.org/2000/svg">
<g clip-path="url(#clip0_1_458)">
<path d="M8.32495 5.36664V14.7" stroke="#C084FC" stroke-width="2" stroke-linecap="round" stroke-linejoin="round"/>
<path d="M2.32487 12.7C2.14806 12.7 1.97849 12.6297 1.85347 12.5047C1.72844 12.3797 1.6582 12.2101 1.6582 12.0333V3.36665C1.6582 3.18984 1.72844 3.02027 1.85347 2.89524C1.97849 2.77022 2.14806 2.69998 2.32487 2.69998H5.6582C6.36545 2.69998 7.04372 2.98093 7.54382 3.48103C8.04392 3.98113 8.32487 4.6594 8.32487 5.36665C8.32487 4.6594 8.60582 3.98113 9.10592 3.48103C9.60601 2.98093 10.2843 2.69998 10.9915 2.69998H14.3249C14.5017 2.69998 14.6712 2.77022 14.7963 2.89524C14.9213 3.02027 14.9915 3.18984 14.9915 3.36665V12.0333C14.9915 12.2101 14.9213 12.3797 14.7963 12.5047C14.6712 12.6297 14.5017 12.7 14.3249 12.7H10.3249C9.79444 12.7 9.28573 12.9107 8.91066 13.2858C8.53558 13.6608 8.32487 14.1695 8.32487 14.7C8.32487 14.1695 8.11416 13.6608 7.73908 13.2858C7.36401 12.9107 6.8553 12.7 6.32487 12.7H2.32487Z" stroke="#C084FC" stroke-width="2" stroke-linecap="round" stroke-linejoin="round"/>
</g>
<defs>
<clipPath id="clip0_1_458">
<rect width="16" height="16" fill="white" transform="translate(0.324951 0.699982)"/>
</clipPath>
</defs>
</svg>
